# Blender v2.78 (sub 0) OBJ File: 'sword1.blend'
# www.blender.org
mtllib sword.mtl
o hilt_Cube.001
v -3.714896 0.413728 0.074819
v -3.714896 0.691167 0.031626
v -3.714896 0.413728 -0.074819
v -3.714896 0.691167 -0.031626
v 3.714896 0.413728 0.074819
v 3.714896 0.691167 0.031626
v 3.714896 0.413728 -0.074819
v 3.714896 0.691167 -0.031626
v -0.004027 -5.312296 -0.207144
v -0.331636 -0.081893 0.610058
v -0.331636 -0.081893 -0.610058
v 0.870000 0.064805 -0.356533
v 0.313201 -5.370182 -0.180001
v 0.004027 -5.312296 0.207144
v 0.331636 -0.081893 0.610058
v -0.210733 -0.838321 -0.505403
v -0.210733 -0.838321 0.505403
v 0.704652 -1.015196 -0.182168
v 0.210733 -0.838321 0.505403
v -0.154096 -4.458108 -0.271338
v -0.154096 -4.458108 0.271338
v 0.464850 -4.443294 -0.120174
v 0.154096 -4.458108 0.271338
v -0.293715 -4.856390 -0.360981
v -0.293715 -4.856390 0.360981
v 0.610313 -4.860535 -0.350754
v 0.293715 -4.856390 0.360981
v -0.146418 -5.197223 -0.282599
v -0.146418 -5.197223 0.282599
v 0.436298 -5.261031 -0.250746
v 0.146418 -5.197223 0.282599
v -3.013135 0.008636 -0.083514
v -3.013135 0.008636 0.083514
v -3.013135 0.410930 0.185866
v -3.013135 0.410930 -0.185866
v 3.013135 0.410930 -0.185866
v 3.013135 0.008636 -0.083514
v 3.013135 0.008636 0.083514
v 3.013135 0.410930 0.185866
v -0.704652 -1.015196 0.182168
v -0.870000 0.064805 0.356533
v -0.870000 0.064805 -0.356533
v -0.704652 -1.015196 -0.182168
v 0.331636 -0.081893 -0.610058
v 0.210733 -0.838321 -0.505403
v 0.870000 0.064805 0.356533
v 0.704652 -1.015196 0.182168
v -0.464850 -4.443294 -0.120174
v -0.464850 -4.443294 0.120174
v 0.154096 -4.458108 -0.271338
v 0.464850 -4.443294 0.120174
v -0.610313 -4.860535 -0.350754
v -0.610313 -4.860535 0.350754
v 0.293715 -4.856390 -0.360981
v 0.610313 -4.860535 0.350754
v -0.436298 -5.261031 -0.250746
v -0.436298 -5.261031 0.250746
v 0.146418 -5.197223 -0.282599
v 0.436298 -5.261031 0.250746
v -0.313201 -5.370182 -0.180001
v -0.313201 -5.370182 0.180001
v 0.313201 -5.370182 0.180001
v 0.000000 0.451563 -0.338010
v 0.000000 0.451563 0.338010
v 0.396213 -1.001359 -0.405991
v -0.396213 -1.001359 -0.405991
v -0.560826 0.073821 -0.500793
v 0.560826 0.073821 -0.500793
v -0.396213 -1.001359 0.405991
v 0.396213 -1.001359 0.405991
v 0.560826 0.073821 0.500793
v -0.560826 0.073821 0.500793
vn -0.9976 -0.0698 0.0000
vn 0.0000 -0.0389 -0.9992
vn 0.9976 -0.0698 0.0000
vn 0.0000 -0.0389 0.9992
vn -0.5171 -0.0606 -0.8538
vn -0.5171 -0.0606 0.8538
vn 0.5171 -0.0606 -0.8538
vn 0.5171 -0.0606 0.8538
vn -1.0000 0.0000 0.0000
vn 0.0000 -0.1370 -0.9906
vn 1.0000 0.0000 0.0000
vn 0.0000 -0.1370 0.9906
vn 0.1539 0.1520 -0.9763
vn -0.4054 -0.9141 0.0000
vn -0.1189 -0.1950 0.9736
vn 0.1594 0.9872 0.0000
vn -0.1189 -0.1950 -0.9736
vn 0.1189 -0.1950 -0.9736
vn 0.4054 -0.9141 0.0000
vn -0.1594 0.9872 0.0000
vn 0.1189 -0.1950 0.9736
vn -0.9443 0.3292 0.0000
vn 0.0000 0.2196 -0.9756
vn 0.9443 0.3292 0.0000
vn 0.0000 0.2196 0.9756
vn -0.9172 -0.3985 0.0000
vn 0.0000 -0.2241 -0.9746
vn 0.9172 -0.3985 0.0000
vn 0.0000 -0.2241 0.9746
vn -0.6635 -0.7482 0.0000
vn 0.6635 -0.7482 0.0000
vn -0.4999 -0.8661 0.0000
vn -0.1525 -0.2437 -0.9578
vn 0.3709 0.9287 0.0000
vn -0.1539 0.1520 -0.9763
vn 0.1525 -0.2437 0.9578
vn 0.4999 -0.8661 0.0000
vn -0.3709 0.9287 0.0000
vn 0.1539 0.1520 0.9763
vn -0.4984 -0.1822 0.8476
vn -0.0291 0.9996 0.0000
vn -0.4984 -0.1822 -0.8476
vn 0.4984 -0.1822 -0.8476
vn 0.0291 0.9996 0.0000
vn 0.4984 -0.1822 0.8476
vn -0.2191 0.4220 -0.8797
vn -0.2191 0.4220 0.8797
vn 0.2191 0.4220 -0.8797
vn 0.2191 0.4220 0.8797
vn -0.0391 -0.2498 -0.9675
vn -0.0391 -0.2498 0.9675
vn 0.0391 -0.2498 -0.9675
vn 0.0391 -0.2498 0.9675
vn 0.0233 -0.5266 -0.8498
vn 0.1817 -0.9833 -0.0019
vn -0.0233 -0.5266 0.8498
vn -0.1817 -0.9833 0.0019
vn -0.0229 -0.5263 -0.8500
vn 0.0000 -0.5483 -0.8363
vn 0.0000 -0.5483 0.8363
vn 0.0229 -0.5263 0.8500
vn -0.1539 0.1520 0.9763
vn -0.5586 0.8294 0.0000
vn 0.0000 -0.3958 -0.9184
vn -0.1525 -0.2437 0.9578
vn 0.5586 0.8294 0.0000
vn 0.0000 -0.3958 0.9184
vn 0.1525 -0.2437 -0.9578
vn 0.0000 -0.5206 -0.8538
vn 0.0000 0.5744 -0.8186
vn 0.0000 -0.5206 0.8538
vn 0.0000 0.5744 0.8186
vn -0.4411 -0.1648 0.8822
vn -0.4411 -0.1648 -0.8822
vn 0.4411 -0.1648 -0.8822
vn 0.4411 -0.1648 0.8822
usemtl Material.001
s off
f 48//1 49//1 40//1 43//1
f 50//2 20//2 66//2 65//2
f 51//3 22//3 18//3 47//3
f 21//4 23//4 70//4 69//4
f 66//5 20//5 48//5 43//5
f 21//6 69//6 40//6 49//6
f 50//7 65//7 18//7 22//7
f 70//8 23//8 51//8 47//8
usemtl Material.002
f 1//9 2//9 4//9 3//9
f 16//10 11//10 44//10 45//10
f 7//11 8//11 6//11 5//11
f 19//12 15//12 10//12 17//12
f 8//13 7//13 36//13
f 33//14 32//14 43//14 40//14
f 34//15 33//15 40//15 41//15
f 35//16 34//16 41//16 42//16
f 32//17 35//17 42//17 43//17
f 36//18 37//18 18//18 12//18
f 37//19 38//19 47//19 18//19
f 39//20 36//20 12//20 46//20
f 38//21 39//21 46//21 47//21
f 52//22 53//22 49//22 48//22
f 54//23 24//23 20//23 50//23
f 55//24 26//24 22//24 51//24
f 25//25 27//25 23//25 21//25
f 56//26 57//26 53//26 52//26
f 58//27 28//27 24//27 54//27
f 59//28 30//28 26//28 55//28
f 29//29 31//29 27//29 25//29
f 60//30 61//30 57//30 56//30
f 62//31 13//31 30//31 59//31
f 1//32 3//32 32//32 33//32
f 35//33 32//33 3//33
f 4//34 2//34 34//34 35//34
f 4//35 35//35 3//35
f 39//36 38//36 5//36
f 7//37 5//37 38//37 37//37
f 6//38 8//38 36//38 39//38
f 6//39 39//39 5//39
f 69//40 72//40 41//40 40//40
f 72//41 67//41 42//41 41//41
f 67//42 66//42 43//42 42//42
f 65//43 68//43 12//43 18//43
f 68//44 71//44 46//44 12//44
f 71//45 70//45 47//45 46//45
f 20//46 24//46 52//46 48//46
f 25//47 21//47 49//47 53//47
f 54//48 50//48 22//48 26//48
f 23//49 27//49 55//49 51//49
f 24//50 28//50 56//50 52//50
f 29//51 25//51 53//51 57//51
f 58//52 54//52 26//52 30//52
f 27//53 31//53 59//53 55//53
f 28//54 9//54 60//54 56//54
f 61//55 60//55 9//55 14//55
f 31//56 14//56 62//56 59//56
f 62//57 14//57 9//57 13//57
f 13//58 9//58 58//58 30//58
f 28//59 58//59 9//59
f 31//60 29//60 14//60
f 61//61 14//61 29//61 57//61
f 2//62 1//62 34//62
f 72//63 64//63 63//63 67//63
f 64//64 71//64 72//64
f 34//65 1//65 33//65
f 71//66 68//66 63//66 64//66
f 68//67 63//67 67//67
f 36//68 7//68 37//68
f 16//69 45//69 65//69 66//69
f 44//70 11//70 67//70 68//70
f 19//71 17//71 69//71 70//71
f 10//72 15//72 71//72 72//72
f 17//73 10//73 72//73 69//73
f 11//74 16//74 66//74 67//74
f 45//75 44//75 68//75 65//75
f 15//76 19//76 70//76 71//76
o blade_Cube
v -0.000000 4.288903 -0.270603
v 0.711696 4.288903 0.000000
v -0.000000 4.288903 0.270603
v -0.711696 4.288903 -0.000000
v 0.000001 9.779019 -0.174574
v 0.449236 9.779019 0.000001
v -0.000000 9.779019 0.174574
v -0.449236 9.779019 -0.000000
v 0.000000 11.360304 0.000000
v -0.000000 0.028183 -0.312173
v 0.853401 0.028183 0.000000
v -0.853401 0.028183 -0.000000
v -0.000000 0.028183 0.312173
vn -0.3489 0.0104 -0.9371
vn 0.3580 0.0167 -0.9336
vn 0.3580 0.0167 0.9336
vn -0.3580 0.0167 0.9336
vn -0.3580 0.0167 -0.9336
vn 0.3603 0.1024 -0.9272
vn 0.3603 0.1024 0.9272
vn -0.3603 0.1024 0.9272
vn -0.3603 0.1024 -0.9272
vn 0.0000 -1.0000 0.0000
vn 0.3489 0.0104 -0.9371
vn -0.3489 0.0104 0.9371
vn 0.3489 0.0104 0.9371
usemtl Material
s off
f 76//77 73//77 82//77 84//77
f 73//78 77//78 78//78 74//78
f 74//79 78//79 79//79 75//79
f 75//80 79//80 80//80 76//80
f 77//81 73//81 76//81 80//81
f 78//82 77//82 81//82
f 79//83 78//83 81//83
f 80//84 79//84 81//84
f 80//85 81//85 77//85
f 82//86 83//86 85//86 84//86
f 73//87 74//87 83//87 82//87
f 75//88 76//88 84//88 85//88
f 74//89 75//89 85//89 83//89
